<mxfile host="app.diagrams.net" modified="2023-11-01T13:31:57.747Z" agent="Mozilla/5.0 (Windows NT 10.0; Win64; x64) AppleWebKit/537.36 (KHTML, like Gecko) Chrome/118.0.0.0 Safari/537.36" etag="FE0WAVaGXo6x_7FIshYx" version="22.0.8" type="device">
  <diagram id="C5RBs43oDa-KdzZeNtuy" name="Page-1">
    <mxGraphModel dx="954" dy="618" grid="1" gridSize="10" guides="1" tooltips="1" connect="1" arrows="1" fold="1" page="1" pageScale="1" pageWidth="827" pageHeight="1169" math="0" shadow="0">
      <root>
        <mxCell id="WIyWlLk6GJQsqaUBKTNV-0" />
        <mxCell id="WIyWlLk6GJQsqaUBKTNV-1" parent="WIyWlLk6GJQsqaUBKTNV-0" />
        <mxCell id="zkfFHV4jXpPFQw0GAbJ--0" value="Accesorio DAO" style="swimlane;fontStyle=2;align=center;verticalAlign=top;childLayout=stackLayout;horizontal=1;startSize=26;horizontalStack=0;resizeParent=1;resizeLast=0;collapsible=1;marginBottom=0;rounded=0;shadow=0;strokeWidth=1;" parent="WIyWlLk6GJQsqaUBKTNV-1" vertex="1">
          <mxGeometry x="220" y="120" width="210" height="300" as="geometry">
            <mxRectangle x="230" y="140" width="160" height="26" as="alternateBounds" />
          </mxGeometry>
        </mxCell>
        <mxCell id="zkfFHV4jXpPFQw0GAbJ--1" value="+Id: str" style="text;align=left;verticalAlign=top;spacingLeft=4;spacingRight=4;overflow=hidden;rotatable=0;points=[[0,0.5],[1,0.5]];portConstraint=eastwest;" parent="zkfFHV4jXpPFQw0GAbJ--0" vertex="1">
          <mxGeometry y="26" width="210" height="26" as="geometry" />
        </mxCell>
        <mxCell id="zkfFHV4jXpPFQw0GAbJ--2" value="+Nombre: str" style="text;align=left;verticalAlign=top;spacingLeft=4;spacingRight=4;overflow=hidden;rotatable=0;points=[[0,0.5],[1,0.5]];portConstraint=eastwest;rounded=0;shadow=0;html=0;" parent="zkfFHV4jXpPFQw0GAbJ--0" vertex="1">
          <mxGeometry y="52" width="210" height="26" as="geometry" />
        </mxCell>
        <mxCell id="zkfFHV4jXpPFQw0GAbJ--3" value="+Descripcion: str" style="text;align=left;verticalAlign=top;spacingLeft=4;spacingRight=4;overflow=hidden;rotatable=0;points=[[0,0.5],[1,0.5]];portConstraint=eastwest;rounded=0;shadow=0;html=0;" parent="zkfFHV4jXpPFQw0GAbJ--0" vertex="1">
          <mxGeometry y="78" width="210" height="26" as="geometry" />
        </mxCell>
        <mxCell id="73g91Enmt_lT-AqQnca4-1" value="+Precio: str" style="text;align=left;verticalAlign=top;spacingLeft=4;spacingRight=4;overflow=hidden;rotatable=0;points=[[0,0.5],[1,0.5]];portConstraint=eastwest;rounded=0;shadow=0;html=0;" vertex="1" parent="zkfFHV4jXpPFQw0GAbJ--0">
          <mxGeometry y="104" width="210" height="26" as="geometry" />
        </mxCell>
        <mxCell id="73g91Enmt_lT-AqQnca4-2" value="+Stock: str" style="text;align=left;verticalAlign=top;spacingLeft=4;spacingRight=4;overflow=hidden;rotatable=0;points=[[0,0.5],[1,0.5]];portConstraint=eastwest;rounded=0;shadow=0;html=0;" vertex="1" parent="zkfFHV4jXpPFQw0GAbJ--0">
          <mxGeometry y="130" width="210" height="26" as="geometry" />
        </mxCell>
        <mxCell id="73g91Enmt_lT-AqQnca4-3" value="+Last_update: DateTime" style="text;align=left;verticalAlign=top;spacingLeft=4;spacingRight=4;overflow=hidden;rotatable=0;points=[[0,0.5],[1,0.5]];portConstraint=eastwest;rounded=0;shadow=0;html=0;" vertex="1" parent="zkfFHV4jXpPFQw0GAbJ--0">
          <mxGeometry y="156" width="210" height="26" as="geometry" />
        </mxCell>
        <mxCell id="73g91Enmt_lT-AqQnca4-0" value="" style="endArrow=none;html=1;rounded=0;" edge="1" parent="zkfFHV4jXpPFQw0GAbJ--0">
          <mxGeometry width="50" height="50" relative="1" as="geometry">
            <mxPoint y="190" as="sourcePoint" />
            <mxPoint x="210" y="190" as="targetPoint" />
          </mxGeometry>
        </mxCell>
        <mxCell id="73g91Enmt_lT-AqQnca4-6" value="+Mostrar(DataTable): DataTable" style="text;html=1;strokeColor=none;fillColor=none;align=center;verticalAlign=middle;whiteSpace=wrap;rounded=0;" vertex="1" parent="zkfFHV4jXpPFQw0GAbJ--0">
          <mxGeometry y="182" width="210" height="30" as="geometry" />
        </mxCell>
        <mxCell id="zkfFHV4jXpPFQw0GAbJ--5" value="+InsertarAccesorio(Accesorio): " style="text;align=left;verticalAlign=top;spacingLeft=4;spacingRight=4;overflow=hidden;rotatable=0;points=[[0,0.5],[1,0.5]];portConstraint=eastwest;" parent="zkfFHV4jXpPFQw0GAbJ--0" vertex="1">
          <mxGeometry y="212" width="210" height="26" as="geometry" />
        </mxCell>
        <mxCell id="73g91Enmt_lT-AqQnca4-10" value="+EditarAccesorio(Accesorio): " style="text;align=left;verticalAlign=top;spacingLeft=4;spacingRight=4;overflow=hidden;rotatable=0;points=[[0,0.5],[1,0.5]];portConstraint=eastwest;" vertex="1" parent="zkfFHV4jXpPFQw0GAbJ--0">
          <mxGeometry y="238" width="210" height="26" as="geometry" />
        </mxCell>
        <mxCell id="73g91Enmt_lT-AqQnca4-9" value="+EliminarAccesorio(Accesorio): " style="text;align=left;verticalAlign=top;spacingLeft=4;spacingRight=4;overflow=hidden;rotatable=0;points=[[0,0.5],[1,0.5]];portConstraint=eastwest;" vertex="1" parent="zkfFHV4jXpPFQw0GAbJ--0">
          <mxGeometry y="264" width="210" height="26" as="geometry" />
        </mxCell>
        <mxCell id="zkfFHV4jXpPFQw0GAbJ--17" value="Conexion" style="swimlane;fontStyle=0;align=center;verticalAlign=top;childLayout=stackLayout;horizontal=1;startSize=26;horizontalStack=0;resizeParent=1;resizeLast=0;collapsible=1;marginBottom=0;rounded=0;shadow=0;strokeWidth=1;" parent="WIyWlLk6GJQsqaUBKTNV-1" vertex="1">
          <mxGeometry x="610" y="180" width="210" height="80" as="geometry">
            <mxRectangle x="550" y="140" width="160" height="26" as="alternateBounds" />
          </mxGeometry>
        </mxCell>
        <mxCell id="73g91Enmt_lT-AqQnca4-13" value="AbrirConexion(): MysqlConecction" style="text;align=left;verticalAlign=top;spacingLeft=4;spacingRight=4;overflow=hidden;rotatable=0;points=[[0,0.5],[1,0.5]];portConstraint=eastwest;" vertex="1" parent="zkfFHV4jXpPFQw0GAbJ--17">
          <mxGeometry y="26" width="210" height="26" as="geometry" />
        </mxCell>
        <mxCell id="73g91Enmt_lT-AqQnca4-14" value="CerrarConexion(): MysqlConecction" style="text;align=left;verticalAlign=top;spacingLeft=4;spacingRight=4;overflow=hidden;rotatable=0;points=[[0,0.5],[1,0.5]];portConstraint=eastwest;" vertex="1" parent="zkfFHV4jXpPFQw0GAbJ--17">
          <mxGeometry y="52" width="210" height="26" as="geometry" />
        </mxCell>
        <mxCell id="73g91Enmt_lT-AqQnca4-15" value="Producto DAO" style="swimlane;fontStyle=2;align=center;verticalAlign=top;childLayout=stackLayout;horizontal=1;startSize=26;horizontalStack=0;resizeParent=1;resizeLast=0;collapsible=1;marginBottom=0;rounded=0;shadow=0;strokeWidth=1;" vertex="1" parent="WIyWlLk6GJQsqaUBKTNV-1">
          <mxGeometry x="520" y="390" width="600" height="410" as="geometry">
            <mxRectangle x="230" y="140" width="160" height="26" as="alternateBounds" />
          </mxGeometry>
        </mxCell>
        <mxCell id="73g91Enmt_lT-AqQnca4-16" value="+Id: str" style="text;align=left;verticalAlign=top;spacingLeft=4;spacingRight=4;overflow=hidden;rotatable=0;points=[[0,0.5],[1,0.5]];portConstraint=eastwest;" vertex="1" parent="73g91Enmt_lT-AqQnca4-15">
          <mxGeometry y="26" width="600" height="26" as="geometry" />
        </mxCell>
        <mxCell id="73g91Enmt_lT-AqQnca4-17" value="+Nombre: str" style="text;align=left;verticalAlign=top;spacingLeft=4;spacingRight=4;overflow=hidden;rotatable=0;points=[[0,0.5],[1,0.5]];portConstraint=eastwest;rounded=0;shadow=0;html=0;" vertex="1" parent="73g91Enmt_lT-AqQnca4-15">
          <mxGeometry y="52" width="600" height="26" as="geometry" />
        </mxCell>
        <mxCell id="73g91Enmt_lT-AqQnca4-18" value="+Descripcion: str" style="text;align=left;verticalAlign=top;spacingLeft=4;spacingRight=4;overflow=hidden;rotatable=0;points=[[0,0.5],[1,0.5]];portConstraint=eastwest;rounded=0;shadow=0;html=0;" vertex="1" parent="73g91Enmt_lT-AqQnca4-15">
          <mxGeometry y="78" width="600" height="26" as="geometry" />
        </mxCell>
        <mxCell id="73g91Enmt_lT-AqQnca4-19" value="+Precio: str" style="text;align=left;verticalAlign=top;spacingLeft=4;spacingRight=4;overflow=hidden;rotatable=0;points=[[0,0.5],[1,0.5]];portConstraint=eastwest;rounded=0;shadow=0;html=0;" vertex="1" parent="73g91Enmt_lT-AqQnca4-15">
          <mxGeometry y="104" width="600" height="26" as="geometry" />
        </mxCell>
        <mxCell id="73g91Enmt_lT-AqQnca4-20" value="+Stock: str" style="text;align=left;verticalAlign=top;spacingLeft=4;spacingRight=4;overflow=hidden;rotatable=0;points=[[0,0.5],[1,0.5]];portConstraint=eastwest;rounded=0;shadow=0;html=0;" vertex="1" parent="73g91Enmt_lT-AqQnca4-15">
          <mxGeometry y="130" width="600" height="26" as="geometry" />
        </mxCell>
        <mxCell id="73g91Enmt_lT-AqQnca4-21" value="+Last_update: DateTime" style="text;align=left;verticalAlign=top;spacingLeft=4;spacingRight=4;overflow=hidden;rotatable=0;points=[[0,0.5],[1,0.5]];portConstraint=eastwest;rounded=0;shadow=0;html=0;" vertex="1" parent="73g91Enmt_lT-AqQnca4-15">
          <mxGeometry y="156" width="600" height="26" as="geometry" />
        </mxCell>
        <mxCell id="73g91Enmt_lT-AqQnca4-22" value="" style="endArrow=none;html=1;rounded=0;" edge="1" parent="73g91Enmt_lT-AqQnca4-15">
          <mxGeometry width="50" height="50" relative="1" as="geometry">
            <mxPoint y="190" as="sourcePoint" />
            <mxPoint x="210" y="190" as="targetPoint" />
          </mxGeometry>
        </mxCell>
        <mxCell id="73g91Enmt_lT-AqQnca4-23" value="+Mostrar(DataTable): DataTable" style="text;html=1;strokeColor=none;fillColor=none;align=center;verticalAlign=middle;whiteSpace=wrap;rounded=0;" vertex="1" parent="73g91Enmt_lT-AqQnca4-15">
          <mxGeometry y="182" width="600" height="30" as="geometry" />
        </mxCell>
        <mxCell id="73g91Enmt_lT-AqQnca4-24" value="+InsertarProducto(Producto): " style="text;align=left;verticalAlign=top;spacingLeft=4;spacingRight=4;overflow=hidden;rotatable=0;points=[[0,0.5],[1,0.5]];portConstraint=eastwest;" vertex="1" parent="73g91Enmt_lT-AqQnca4-15">
          <mxGeometry y="212" width="600" height="26" as="geometry" />
        </mxCell>
        <mxCell id="73g91Enmt_lT-AqQnca4-25" value="+EditarProducto(Producto): " style="text;align=left;verticalAlign=top;spacingLeft=4;spacingRight=4;overflow=hidden;rotatable=0;points=[[0,0.5],[1,0.5]];portConstraint=eastwest;" vertex="1" parent="73g91Enmt_lT-AqQnca4-15">
          <mxGeometry y="238" width="600" height="26" as="geometry" />
        </mxCell>
        <mxCell id="73g91Enmt_lT-AqQnca4-26" value="+EliminarProducto(Producto): " style="text;align=left;verticalAlign=top;spacingLeft=4;spacingRight=4;overflow=hidden;rotatable=0;points=[[0,0.5],[1,0.5]];portConstraint=eastwest;" vertex="1" parent="73g91Enmt_lT-AqQnca4-15">
          <mxGeometry y="264" width="600" height="26" as="geometry" />
        </mxCell>
        <mxCell id="73g91Enmt_lT-AqQnca4-30" value="+ObtenerAccesorio(string: id_producto): " style="text;align=left;verticalAlign=top;spacingLeft=4;spacingRight=4;overflow=hidden;rotatable=0;points=[[0,0.5],[1,0.5]];portConstraint=eastwest;" vertex="1" parent="73g91Enmt_lT-AqQnca4-15">
          <mxGeometry y="290" width="600" height="26" as="geometry" />
        </mxCell>
        <mxCell id="73g91Enmt_lT-AqQnca4-31" value="" style="endArrow=none;html=1;rounded=0;entryX=1;entryY=0.25;entryDx=0;entryDy=0;" edge="1" parent="73g91Enmt_lT-AqQnca4-15" target="73g91Enmt_lT-AqQnca4-23">
          <mxGeometry width="50" height="50" relative="1" as="geometry">
            <mxPoint x="210" y="190" as="sourcePoint" />
            <mxPoint x="410" y="220" as="targetPoint" />
          </mxGeometry>
        </mxCell>
        <mxCell id="73g91Enmt_lT-AqQnca4-32" value="+InsertarTablaIntermedia(string: id_producto, List: lista_accesorios, string: cantidad_accesorios): " style="text;align=left;verticalAlign=top;spacingLeft=4;spacingRight=4;overflow=hidden;rotatable=0;points=[[0,0.5],[1,0.5]];portConstraint=eastwest;" vertex="1" parent="73g91Enmt_lT-AqQnca4-15">
          <mxGeometry y="316" width="600" height="26" as="geometry" />
        </mxCell>
        <mxCell id="73g91Enmt_lT-AqQnca4-35" value="+AccesoriosDeUnaLista(List: id_productos, List: cantidad_productos, DataTable: tabla): " style="text;align=left;verticalAlign=top;spacingLeft=4;spacingRight=4;overflow=hidden;rotatable=0;points=[[0,0.5],[1,0.5]];portConstraint=eastwest;" vertex="1" parent="73g91Enmt_lT-AqQnca4-15">
          <mxGeometry y="342" width="600" height="26" as="geometry" />
        </mxCell>
        <mxCell id="73g91Enmt_lT-AqQnca4-28" value="" style="endArrow=classic;html=1;rounded=0;exitX=1;exitY=0.5;exitDx=0;exitDy=0;" edge="1" parent="WIyWlLk6GJQsqaUBKTNV-1" source="73g91Enmt_lT-AqQnca4-3">
          <mxGeometry width="50" height="50" relative="1" as="geometry">
            <mxPoint x="550" y="340" as="sourcePoint" />
            <mxPoint x="630" y="390" as="targetPoint" />
            <Array as="points">
              <mxPoint x="630" y="290" />
            </Array>
          </mxGeometry>
        </mxCell>
        <mxCell id="73g91Enmt_lT-AqQnca4-29" value="" style="endArrow=none;html=1;rounded=0;entryX=0.006;entryY=0.205;entryDx=0;entryDy=0;exitX=1;exitY=0.5;exitDx=0;exitDy=0;entryPerimeter=0;" edge="1" parent="WIyWlLk6GJQsqaUBKTNV-1" source="73g91Enmt_lT-AqQnca4-1" target="73g91Enmt_lT-AqQnca4-14">
          <mxGeometry width="50" height="50" relative="1" as="geometry">
            <mxPoint x="450" y="257" as="sourcePoint" />
            <mxPoint x="630" y="257" as="targetPoint" />
          </mxGeometry>
        </mxCell>
        <mxCell id="73g91Enmt_lT-AqQnca4-36" value="Excel" style="swimlane;fontStyle=0;align=center;verticalAlign=top;childLayout=stackLayout;horizontal=1;startSize=26;horizontalStack=0;resizeParent=1;resizeLast=0;collapsible=1;marginBottom=0;rounded=0;shadow=0;strokeWidth=1;" vertex="1" parent="WIyWlLk6GJQsqaUBKTNV-1">
          <mxGeometry x="150" y="560" width="240" height="52" as="geometry">
            <mxRectangle x="550" y="140" width="160" height="26" as="alternateBounds" />
          </mxGeometry>
        </mxCell>
        <mxCell id="73g91Enmt_lT-AqQnca4-37" value="+ExportDataTableToExcel(DataTable tabla)" style="text;align=left;verticalAlign=top;spacingLeft=4;spacingRight=4;overflow=hidden;rotatable=0;points=[[0,0.5],[1,0.5]];portConstraint=eastwest;" vertex="1" parent="73g91Enmt_lT-AqQnca4-36">
          <mxGeometry y="26" width="240" height="26" as="geometry" />
        </mxCell>
        <mxCell id="73g91Enmt_lT-AqQnca4-39" value="" style="endArrow=classic;html=1;rounded=0;exitX=0;exitY=0.5;exitDx=0;exitDy=0;" edge="1" parent="WIyWlLk6GJQsqaUBKTNV-1" source="73g91Enmt_lT-AqQnca4-18">
          <mxGeometry width="50" height="50" relative="1" as="geometry">
            <mxPoint x="360" y="530" as="sourcePoint" />
            <mxPoint x="260" y="550" as="targetPoint" />
            <Array as="points">
              <mxPoint x="260" y="480" />
            </Array>
          </mxGeometry>
        </mxCell>
        <mxCell id="73g91Enmt_lT-AqQnca4-40" value="" style="endArrow=classic;html=1;rounded=0;exitX=0.5;exitY=1;exitDx=0;exitDy=0;" edge="1" parent="WIyWlLk6GJQsqaUBKTNV-1" source="zkfFHV4jXpPFQw0GAbJ--0">
          <mxGeometry width="50" height="50" relative="1" as="geometry">
            <mxPoint x="360" y="530" as="sourcePoint" />
            <mxPoint x="260" y="550" as="targetPoint" />
            <Array as="points">
              <mxPoint x="325" y="490" />
              <mxPoint x="260" y="490" />
            </Array>
          </mxGeometry>
        </mxCell>
      </root>
    </mxGraphModel>
  </diagram>
</mxfile>
